<svg width="50" height="50" viewBox="-2 -3 50 50" fill="none" stroke-width="2.5" stroke="currentColor" xmlns="http://www.w3.org/2000/svg">
<path d="M29.261 14.4612C28.2363 6.85604 25.6521 0.5 21.6645 0.5C17.6881 0.5 15.0928 6.85604 14.068 14.4612C6.40468 15.4782 0 18.0427 0 22C0 25.9463 6.40468 28.5218 14.068 29.5388C15.0928 37.144 17.6769 43.5 21.6645 43.5C25.641 43.5 28.2363 37.144 29.261 29.5388C36.9244 28.5218 43.3291 25.9573 43.3291 22C43.3291 18.0427 36.9244 15.4671 29.261 14.4612ZM13.823 27.3059C6.48265 26.2558 2.19429 23.846 2.19429 21.9889C2.19429 20.1319 6.47151 17.7221 13.823 16.672C13.6559 18.4296 13.5779 20.2203 13.5779 21.9889C13.5779 23.7576 13.6559 25.5594 13.823 27.3059ZM21.6645 2.66658C23.5358 2.66658 25.964 6.91131 27.0222 14.2069C25.2511 14.0411 23.4467 13.9638 21.6645 13.9638C19.8824 13.9638 18.0779 14.0522 16.3069 14.2069C17.365 6.92237 19.7932 2.66658 21.6645 2.66658ZM29.5061 27.3059C29.1496 27.3612 27.6571 27.527 27.2895 27.5712C27.2561 27.947 27.0779 29.4172 27.0222 29.771C25.964 37.0555 23.5358 41.3113 21.6645 41.3113C19.7932 41.3113 17.365 37.0666 16.3069 29.771C16.2512 29.4172 16.0841 27.936 16.0395 27.5712C15.8725 25.8468 15.7611 23.9897 15.7611 21.9889C15.7611 19.9882 15.8613 18.1422 16.0395 16.4067C17.7772 16.2409 19.6484 16.1303 21.6645 16.1303C23.6806 16.1303 25.5408 16.2298 27.2895 16.4067C27.6682 16.4398 29.1496 16.6167 29.5061 16.672C36.8464 17.7221 41.1348 20.1319 41.1348 21.9889C41.1348 23.846 36.8464 26.2558 29.5061 27.3059Z" fill="white"/>
</svg>
